<?xml version="1.0" encoding="UTF-8" standalone="no"?>
<!-- Created with Inkscape (http://www.inkscape.org/) -->

<svg
   version="1.1"
   id="svg1"
   width="2366.9866"
   height="726.88397"
   viewBox="0 0 2366.9866 726.88397"
   sodipodi:docname="Derma_logo.svg"
   xmlns:inkscape="http://www.inkscape.org/namespaces/inkscape"
   xmlns:sodipodi="http://sodipodi.sourceforge.net/DTD/sodipodi-0.dtd"
   xmlns="http://www.w3.org/2000/svg"
   xmlns:svg="http://www.w3.org/2000/svg">
  <defs
     id="defs1" />
  <sodipodi:namedview
     id="namedview1"
     pagecolor="#ffffff"
     bordercolor="#000000"
     borderopacity="0.25"
     inkscape:showpageshadow="2"
     inkscape:pageopacity="0.0"
     inkscape:pagecheckerboard="0"
     inkscape:deskcolor="#d1d1d1">
    <inkscape:page
       x="-1623.1733"
       y="-391.52802"
       inkscape:label="1"
       id="page1"
       width="5613.3335"
       height="1356"
       margin="0"
       bleed="0" />
  </sodipodi:namedview>
  <g
     id="g1"
     inkscape:groupmode="layer"
     inkscape:label="1"
     transform="translate(-1623.1733,-391.52802)">
    <g
       id="group-R5">
      <path
         id="path3"
         d="M 12929,7039.8 V 3760.23 h 320.2 c 904.1,0 1274.6,853.65 1274.6,1636.96 0,780.64 -376.2,1642.61 -1274.6,1642.61 z m -755.2,-3478.96 v 3672.7 h 1347.7 c 1013.6,0 1752.1,-772.22 1752.2,-1836.35 0,-1064.13 -738.6,-1836.35 -1752.1,-1836.35 h -1347.8"
         style="fill:#313234;fill-opacity:1;fill-rule:nonzero;stroke:none"
         transform="matrix(0.13333333,0,0,-0.13333333,0,1356)" />
      <path
         id="path4"
         d="m 15861.7,7233.54 h 2479.2 V 7039.79 H 16611.4 V 5722.88 h 1488 v -199.39 h -1488 V 3760.23 h 1729.5 v -199.39 h -2479.2 v 3672.7"
         style="fill:#313234;fill-opacity:1;fill-rule:nonzero;stroke:none"
         transform="matrix(0.13333333,0,0,-0.13333333,0,1356)" />
      <path
         id="path5"
         d="M 19717.5,7039.8 V 5495.45 h 505.5 c 423.9,0 763.7,348.08 763.7,766.48 0,424.05 -339.8,777.87 -763.7,777.87 z m -755.2,193.74 h 1810.9 c 533.5,0 968.7,-429.69 968.6,-971.61 0,-539.05 -449.2,-960.23 -985.4,-960.23 210.6,-115.09 379,-297.65 513.8,-603.73 l 505.4,-1137.13 h -831.1 l -575.6,1286.01 c -120.8,283.49 -241.5,454.85 -477.3,454.85 h -174.1 V 3560.84 h -755.2 v 3672.7"
         style="fill:#313234;fill-opacity:1;fill-rule:nonzero;stroke:none"
         transform="matrix(0.13333333,0,0,-0.13333333,0,1356)" />
      <path
         id="path6"
         d="m 24257.3,4625.07 1210.1,2608.47 892.8,-3672.7 h -772.1 L 25006.9,5826.79 23968,3560.84 22875.8,5767.85 22440.6,3560.84 h -199.3 l 718.8,3672.7 1297.2,-2608.47"
         style="fill:#313234;fill-opacity:1;fill-rule:nonzero;stroke:none"
         transform="matrix(0.13333333,0,0,-0.13333333,0,1356)" />
      <path
         id="path7"
         d="m 27949.2,6051.34 -1058.5,-2490.5 h -216.2 l 1563.8,3672.7 1631.4,-3672.7 h -822.6 l -1097.9,2490.5"
         style="fill:#313234;fill-opacity:1;fill-rule:nonzero;stroke:none"
         transform="matrix(0.13333333,0,0,-0.13333333,0,1356)" />
      <path
         id="path8"
         d="m 12659.2,2735.02 c 147.2,0 268.2,-58.3 362.1,-161.77 l -89.6,-80.86 c -94,99.83 -236.8,167.59 -368.7,167.59 -82.3,0 -159.5,-25.5 -219.3,-85.95 -142.1,-141.38 -115.9,-398.59 58.3,-572.74 92.5,-92.54 214.9,-142.82 333.7,-142.82 95.5,0 188,32.78 257.2,104.93 l 21.9,-19.69 c -86,-97.63 -213.5,-161.76 -355.6,-161.76 -262.3,0 -476.5,213.5 -476.5,476.55 0,263.04 214.2,476.52 476.5,476.52"
         style="fill:#313234;fill-opacity:1;fill-rule:nonzero;stroke:none"
         transform="matrix(0.13333333,0,0,-0.13333333,0,1356)" />
      <path
         id="path9"
         d="m 13250.4,2349.58 c -51.8,-51.74 -73.6,-127.5 -51.8,-212.04 h 476.6 c 0,141.38 -115.9,281.24 -263,281.24 -56.9,0 -114.4,-21.1 -161.8,-69.2 z m 212,112.93 c 201.9,0 324.3,-150.82 324.2,-354.84 h -574.8 c 32.7,-142.1 177,-252.11 321.3,-252.11 62.7,0 122.4,20.4 167.6,67.76 l 20.4,-18.92 c -59.8,-75.06 -153.7,-122.44 -258.7,-122.44 -188,0 -340.2,152.3 -340.2,340.28 0,187.99 152.2,340.27 340.2,340.27"
         style="fill:#313234;fill-opacity:1;fill-rule:nonzero;stroke:none"
         transform="matrix(0.13333333,0,0,-0.13333333,0,1356)" />
      <path
         id="path10"
         d="m 14352.8,2462.51 c 95.5,0 167.6,-47.33 167.7,-180.69 v -499.91 h -106.4 v 480.92 c 0,103.46 -54.7,138.42 -123.9,139.89 -77.2,0 -174.1,-46.64 -232.4,-87.43 v -533.38 h -106.4 v 680.57 h 53.1 c 29.9,0 53.2,-23.29 53.2,-53.18 v -59.75 c 74.3,56.12 194.6,112.96 295.1,112.96"
         style="fill:#313234;fill-opacity:1;fill-rule:nonzero;stroke:none"
         transform="matrix(0.13333333,0,0,-0.13333333,0,1356)" />
      <path
         id="path11"
         d="m 14859.7,2656.35 v -193.84 h 199.7 v -28.41 h -199.7 v -487.45 c 0,-65.57 24.1,-99.09 59.8,-115.85 12.4,-5.09 27,-6.55 42.2,-6.55 31.4,0 67.8,9.46 103.5,25.5 l 12.4,-29.9 c -49.6,-25.47 -99.8,-37.89 -150.1,-37.89 -95.5,0 -174.1,56.09 -174.1,189.45 V 2434.1 H 14639 v 28.41 c 130.4,0 167.6,59.04 167.6,193.84 h 53.1"
         style="fill:#313234;fill-opacity:1;fill-rule:nonzero;stroke:none"
         transform="matrix(0.13333333,0,0,-0.13333333,0,1356)" />
      <path
         id="path12"
         d="m 15558.9,2462.51 c 51.7,0 90.3,-20.36 125.3,-56.86 l -77.2,-81.62 c -32.8,44.45 -78,64.83 -115.9,64.83 -57.5,-2.16 -115.8,-39.33 -159.5,-73.57 v -533.38 h -107.2 v 680.57 h 53.2 c 29.9,0 54,-23.29 54,-53.18 v -59.75 c 64.1,53.22 142.1,112.96 227.3,112.96"
         style="fill:#313234;fill-opacity:1;fill-rule:nonzero;stroke:none"
         transform="matrix(0.13333333,0,0,-0.13333333,0,1356)" />
      <path
         id="path13"
         d="m 15868.7,2349.58 c -51.8,-51.74 -73.6,-127.5 -51.8,-212.04 h 476.6 c 0,141.38 -115.9,281.24 -263.1,281.24 -56.8,0 -114.3,-21.1 -161.7,-69.2 z m 212,112.93 c 201.9,0 324.3,-150.82 324.2,-354.84 h -574.8 c 32.7,-142.1 177,-252.11 321.3,-252.11 62.7,0 122.4,20.4 167.6,67.76 l 20.4,-18.92 c -59.8,-75.06 -153.7,-122.44 -258.7,-122.44 -188,0 -340.2,152.3 -340.2,340.28 0,187.99 152.2,340.27 340.2,340.27"
         style="fill:#313234;fill-opacity:1;fill-rule:nonzero;stroke:none"
         transform="matrix(0.13333333,0,0,-0.13333333,0,1356)" />
      <path
         id="path14"
         d="m 17334.4,2427.55 c -142.8,2.18 -214.9,-139.17 -217.8,-283.43 -2.2,-153.74 71.4,-311.88 223.7,-316.97 64.8,0 127.5,28.41 168.3,84.52 v 392 c -35,80.15 -105.6,123.88 -174.2,123.88 z m -16,34.96 c 84.6,0 149.4,-36.43 190.2,-85.24 v 357.76 h 53.2 c 29.1,0 53.1,-24.75 53.1,-53.18 v -899.91 h -53.1 l -53.2,85.98 c -16,-18.95 -93.3,-85.98 -201.1,-85.98 -189.5,0 -287.1,141.38 -298,295.12 -15.3,189.44 97.6,385.45 308.9,385.45"
         style="fill:#313234;fill-opacity:1;fill-rule:nonzero;stroke:none"
         transform="matrix(0.13333333,0,0,-0.13333333,0,1356)" />
      <path
         id="path15"
         d="m 17863.9,2735.02 c 35.7,0 64.1,-26.94 64.1,-62.67 0,-85.99 -29.8,-158.86 -85.9,-212.04 l -22.6,20.4 c 33.5,36.43 51.7,83.06 53.9,126.04 -40.8,0 -72.9,20.41 -72.9,65.6 0,35.7 29.9,62.67 63.4,62.67"
         style="fill:#313234;fill-opacity:1;fill-rule:nonzero;stroke:none"
         transform="matrix(0.13333333,0,0,-0.13333333,0,1356)" />
      <path
         id="path16"
         d="m 18124.6,2735.02 h 618.6 v -29.87 h -505.7 v -373.09 h 443 v -31.33 h -443 v -487.42 h 505.7 v -31.36 h -618.6 v 953.07"
         style="fill:#313234;fill-opacity:1;fill-rule:nonzero;stroke:none"
         transform="matrix(0.13333333,0,0,-0.13333333,0,1356)" />
      <path
         id="path17"
         d="m 19114.6,2462.51 c 93.3,0 166.9,-20.36 233.9,-59.77 l -16,-26.97 c -49.6,29.88 -121.7,59.75 -214.2,59.75 -53.2,0 -119.6,-15.3 -149.4,-64.11 -21.9,-40.8 -4.4,-92.52 70.7,-121.69 l 197.4,-75.76 c 136.3,-53.9 177.8,-163.94 141.4,-254.3 -32.8,-76.49 -121,-137.72 -258.7,-137.72 -117.3,0 -217.9,53.18 -266.7,115.85 l 21.9,20.41 c 53.2,-57.58 142.8,-106.39 244.8,-106.39 84.5,0 142.8,34.26 167.6,80.15 35,61.97 5.1,145 -102,185.81 l -204.8,79.44 c -99.1,37.91 -136.9,120.24 -108.5,188 26.2,64.11 103.4,117.3 242.6,117.3"
         style="fill:#313234;fill-opacity:1;fill-rule:nonzero;stroke:none"
         transform="matrix(0.13333333,0,0,-0.13333333,0,1356)" />
      <path
         id="path18"
         d="m 19706.9,2656.35 v -193.84 h 199.7 v -28.41 h -199.7 v -487.45 c 0,-65.57 24.1,-99.09 59.8,-115.85 12.3,-5.09 26.9,-6.55 42.2,-6.55 31.3,0 67.8,9.46 103.5,25.5 l 12.4,-29.9 c -49.6,-25.47 -99.8,-37.89 -150.1,-37.89 -95.5,0 -174.1,56.09 -174.1,189.45 v 462.69 h -114.5 v 28.41 c 130.5,0 167.6,59.04 167.6,193.84 h 53.2"
         style="fill:#313234;fill-opacity:1;fill-rule:nonzero;stroke:none"
         transform="matrix(0.13333333,0,0,-0.13333333,0,1356)" />
      <path
         id="path19"
         d="m 20310.3,2735.02 130.4,-220.78 h -31.4 l -219.3,220.78 z m -199,-385.45 c -51.7,-51.72 -73.5,-127.53 -51.7,-212.04 h 476.5 c 0,141.35 -115.8,281.98 -263,281.98 -56.8,0 -114.4,-21.85 -161.8,-69.94 z m 212.1,112.95 c 201.8,0 324.2,-150.82 324.2,-354.81 h -574.9 c 32.8,-142.1 177.1,-252.12 321.4,-252.12 62.6,0 123.1,20.41 167.5,68.48 l 20.5,-19.67 c -59.8,-74.33 -153.8,-122.43 -258.7,-122.43 -188,0 -340.3,152.3 -340.3,340.29 0,187.96 152.3,340.26 340.3,340.26"
         style="fill:#313234;fill-opacity:1;fill-rule:nonzero;stroke:none"
         transform="matrix(0.13333333,0,0,-0.13333333,0,1356)" />
      <path
         id="path20"
         d="m 20932.4,2656.35 v -193.84 h 199.6 v -28.41 h -199.6 v -487.45 c 0,-65.57 24,-99.09 59.7,-115.85 12.4,-5.09 27,-6.55 42.3,-6.55 31.3,0 67.7,9.46 103.4,25.5 l 12.4,-29.9 c -49.5,-25.47 -99.8,-37.89 -150.1,-37.89 -95.4,0 -174.1,56.09 -174.1,189.45 v 462.69 h -114.4 v 28.41 c 130.4,0 167.6,59.04 167.6,193.84 h 53.2"
         style="fill:#313234;fill-opacity:1;fill-rule:nonzero;stroke:none"
         transform="matrix(0.13333333,0,0,-0.13333333,0,1356)" />
      <path
         id="path21"
         d="m 21348.9,2462.51 c 29.8,0 54.6,-23.29 54.6,-53.19 v -627.38 h -106.4 v 680.57 z m 0,222.27 c 38.6,0 65.5,-28.43 65.5,-62.67 0,-37.17 -26.9,-65.57 -65.5,-65.57 -35.1,0 -62.7,28.43 -62.7,65.57 0,34.26 27.7,62.67 62.7,62.67"
         style="fill:#313234;fill-opacity:1;fill-rule:nonzero;stroke:none"
         transform="matrix(0.13333333,0,0,-0.13333333,0,1356)" />
      <path
         id="path22"
         d="m 21915.1,2462.51 c 103.5,0 193.8,-43.73 258.6,-115.83 l -85.2,-67.76 c -64.1,67.01 -166.1,114.39 -257.9,114.39 -50.3,0 -99.1,-15.33 -134.8,-51.75 -91.1,-91.05 -66.3,-263.04 54.6,-383.98 62.7,-64.14 152.3,-102.02 235.4,-102.02 62.7,0 123.1,20.4 167.6,67.76 l 20.4,-18.92 c -59.8,-75.06 -153.8,-122.44 -258.7,-122.44 -188,0 -340.3,152.3 -340.3,340.28 0,187.99 152.3,340.27 340.3,340.27"
         style="fill:#313234;fill-opacity:1;fill-rule:nonzero;stroke:none"
         transform="matrix(0.13333333,0,0,-0.13333333,0,1356)" />
      <path
         id="path23"
         d="m 22742.9,2243.19 -183.7,-75.78 c -88.1,-37.14 -172.6,-112.92 -160.3,-212.76 9.5,-81.59 78.7,-118.04 155.2,-118.04 69.3,0 148,29.87 188.8,69.22 z m -114.5,219.32 c 148.7,0 222.3,-62.65 222.3,-190.17 v -490.4 h -54.7 l -53.2,89.63 c -69.2,-56.83 -171.2,-89.63 -251.4,-89.63 -110.7,0 -185,69.22 -196,150.83 -16.7,114.39 92.6,200.37 207,244.1 l 180.7,72.15 c 51.7,18.92 79.4,56.84 79.4,95.45 0,47.35 -42.3,86.7 -112.2,86.7 -88.2,0 -183.6,-66.3 -260.9,-136.98 l -53.1,100.56 c 83,42.26 206.9,67.76 292.1,67.76"
         style="fill:#313234;fill-opacity:1;fill-rule:nonzero;stroke:none"
         transform="matrix(0.13333333,0,0,-0.13333333,0,1356)" />
      <path
         id="path24"
         d="m 23573.6,2462.51 c 29.9,0 54.7,-23.29 54.7,-53.19 v -627.38 h -106.4 v 680.57 z m 0,222.27 c 38.6,0 65.6,-28.43 65.6,-62.67 0,-37.17 -27,-65.57 -65.6,-65.57 -35,0 -62.6,28.43 -62.6,65.57 0,34.26 27.7,62.67 62.6,62.67"
         style="fill:#313234;fill-opacity:1;fill-rule:nonzero;stroke:none"
         transform="matrix(0.13333333,0,0,-0.13333333,0,1356)" />
      <path
         id="path25"
         d="m 24427.9,2300.73 v -487.45 h 254.3 c 134.8,0 244.8,110 244.8,243.35 0,134.8 -110,244.1 -244.8,244.1 z m 0,404.42 v -373.09 h 216.4 c 102,0 186.6,84.55 186.6,186.54 0,102.03 -84.6,186.55 -186.6,186.55 z m -113.6,29.87 h 411.7 c 119.4,0 217.8,-95.44 217.8,-213.46 0,-94 -65.5,-170.53 -155.2,-196.03 123.9,-12.38 251.4,-115.85 251.4,-271.05 0,-151.56 -123.9,-272.53 -274.7,-272.53 h -451 v 953.07"
         style="fill:#313234;fill-opacity:1;fill-rule:nonzero;stroke:none"
         transform="matrix(0.13333333,0,0,-0.13333333,0,1356)" />
      <path
         id="path26"
         d="m 25300.3,2349.58 c -51.8,-51.74 -73.7,-127.5 -51.8,-212.04 h 476.6 c 0,141.38 -115.9,281.24 -263.1,281.24 -56.8,0 -114.4,-21.1 -161.7,-69.2 z m 212,112.93 c 201.8,0 324.2,-150.82 324.2,-354.84 h -574.9 c 32.8,-142.1 177.1,-252.11 321.3,-252.11 62.7,0 122.5,20.4 167.6,67.76 l 20.5,-18.92 c -59.8,-75.06 -153.8,-122.44 -258.7,-122.44 -188,0 -340.3,152.3 -340.3,340.28 0,187.99 152.3,340.27 340.3,340.27"
         style="fill:#313234;fill-opacity:1;fill-rule:nonzero;stroke:none"
         transform="matrix(0.13333333,0,0,-0.13333333,0,1356)" />
      <path
         id="path27"
         d="m 26402.7,2462.51 c 95.5,0 167.6,-47.33 167.6,-180.69 v -499.91 h -106.4 v 480.92 c 0,103.46 -54.6,138.42 -123.8,139.89 -77.3,0 -174.2,-46.64 -232.5,-87.43 v -533.38 h -106.4 v 680.57 h 53.2 c 29.9,0 53.2,-23.29 53.2,-53.18 v -59.75 c 74.3,56.12 194.5,112.96 295.1,112.96"
         style="fill:#313234;fill-opacity:1;fill-rule:nonzero;stroke:none"
         transform="matrix(0.13333333,0,0,-0.13333333,0,1356)" />
      <path
         id="path28"
         d="m 26864.7,2349.58 c -51.7,-51.74 -73.6,-127.5 -51.7,-212.04 h 476.5 c 0,141.38 -115.8,281.24 -263,281.24 -56.9,0 -114.4,-21.1 -161.8,-69.2 z m 212,112.93 c 201.9,0 324.3,-150.82 324.3,-354.84 h -574.9 c 32.7,-142.1 177,-252.11 321.3,-252.11 62.7,0 122.4,20.4 167.6,67.76 l 20.4,-18.92 c -59.7,-75.06 -153.7,-122.44 -258.7,-122.44 -187.9,0 -340.2,152.3 -340.2,340.28 0,187.99 152.3,340.27 340.2,340.27"
         style="fill:#313234;fill-opacity:1;fill-rule:nonzero;stroke:none"
         transform="matrix(0.13333333,0,0,-0.13333333,0,1356)" />
      <path
         id="path29"
         d="m 27789.2,2462.51 c 93.2,0 166.8,-20.36 233.9,-59.77 l -16.1,-26.97 c -49.5,29.88 -121.6,59.75 -214.2,59.75 -53.2,0 -119.5,-15.3 -149.4,-64.11 -21.8,-40.8 -4.4,-92.52 70.7,-121.69 l 197.5,-75.76 c 136.2,-53.9 177.8,-163.94 141.3,-254.3 -32.8,-76.49 -120.9,-137.72 -258.7,-137.72 -117.2,0 -217.8,53.18 -266.6,115.85 l 21.8,20.41 c 53.2,-57.58 142.8,-106.39 244.8,-106.39 84.6,0 142.9,34.26 167.6,80.15 35,61.97 5.1,145 -102,185.81 l -204.7,79.44 c -99.1,37.91 -137,120.24 -108.6,188 26.2,64.11 103.5,117.3 242.7,117.3"
         style="fill:#313234;fill-opacity:1;fill-rule:nonzero;stroke:none"
         transform="matrix(0.13333333,0,0,-0.13333333,0,1356)" />
      <path
         id="path30"
         d="m 28381.5,2656.35 v -193.84 h 199.6 v -28.41 h -199.6 v -487.45 c 0,-65.57 24,-99.09 59.7,-115.85 12.4,-5.09 27,-6.55 42.3,-6.55 31.3,0 67.7,9.46 103.4,25.5 l 12.4,-29.9 c -49.5,-25.47 -99.8,-37.89 -150.1,-37.89 -95.4,0 -174.1,56.09 -174.1,189.45 v 462.69 h -114.4 v 28.41 c 130.4,0 167.6,59.04 167.6,193.84 h 53.2"
         style="fill:#313234;fill-opacity:1;fill-rule:nonzero;stroke:none"
         transform="matrix(0.13333333,0,0,-0.13333333,0,1356)" />
      <path
         id="path31"
         d="m 29157.2,2243.19 -183.6,-75.78 c -88.2,-37.14 -172.7,-112.92 -160.4,-212.76 9.5,-81.59 78.7,-118.04 155.3,-118.04 69.2,0 147.9,29.87 188.7,69.22 z m -114.4,219.32 c 148.6,0 222.2,-62.65 222.2,-190.17 v -490.4 h -54.7 l -53.2,89.63 c -69.2,-56.83 -171.2,-89.63 -251.3,-89.63 -110.8,0 -185.1,69.22 -196.1,150.83 -16.7,114.39 92.6,200.37 207,244.1 l 180.7,72.15 c 51.7,18.92 79.4,56.84 79.4,95.45 0,47.35 -42.2,86.7 -112.2,86.7 -88.1,0 -183.6,-66.3 -260.8,-136.98 l -53.2,100.56 c 83,42.26 206.9,67.76 292.2,67.76"
         style="fill:#313234;fill-opacity:1;fill-rule:nonzero;stroke:none"
         transform="matrix(0.13333333,0,0,-0.13333333,0,1356)" />
      <path
         id="path32"
         d="m 29800.9,2462.51 c 51.7,0 90.3,-20.36 125.3,-56.86 l -77.2,-81.62 c -32.8,44.45 -78,64.83 -115.9,64.83 -57.5,-2.16 -115.8,-39.33 -159.5,-73.57 v -533.38 h -107.2 v 680.57 h 53.3 c 29.8,0 53.9,-23.29 53.9,-53.18 v -59.75 c 64.1,53.22 142.1,112.96 227.3,112.96"
         style="fill:#313234;fill-opacity:1;fill-rule:nonzero;stroke:none"
         transform="matrix(0.13333333,0,0,-0.13333333,0,1356)" />
      <path
         id="path33"
         d="m 27917.2,4452.3 c -20.2,4.11 -40.8,7.15 -60.7,12.55 -45.8,12.42 -85.6,36.28 -120.2,68.29 -57.5,53.08 -92,119.18 -107,195.52 -11.7,58.98 -6.6,116.63 14.5,173.16 26.3,70.9 61.9,137.06 101.4,201.27 53.5,87.02 113.3,169.61 176.7,249.67 11.8,14.93 21.6,14.94 33.4,0 74,-93.66 143.4,-190.5 203,-294 28.1,-48.56 52.6,-98.76 73,-151.09 26,-66.76 29.3,-134.37 11,-203.23 -23.9,-89.42 -73.3,-160.64 -152.6,-209.58 -37.6,-23.2 -78.9,-36.49 -122.9,-41.03 -2.3,-0.24 -4.6,-1.01 -6.8,-1.53 -14.3,0 -28.5,0 -42.8,0"
         style="fill:#313234;fill-opacity:1;fill-rule:nonzero;stroke:none"
         transform="matrix(0.13333333,0,0,-0.13333333,0,1356)" />
    </g>
  </g>
</svg>
