<?xml version="1.0" encoding="iso-8859-1"?>
<!DOCTYPE svg PUBLIC "-//W3C//DTD SVG 1.1//EN" "http://www.w3.org/Graphics/SVG/1.1/DTD/svg11.dtd">
<svg fill="#000000" version="1.1" id="Capa_1" xmlns="http://www.w3.org/2000/svg" xmlns:xlink="http://www.w3.org/1999/xlink" 
	 width="800px" height="800px" viewBox="0 0 32 32" xml:space="preserve">
<g>
	<g>
		<path d="M27.39,27.593c-0.262-0.139-1.282-1.063-0.539-1.819c5.984-5.758-1.689-10.264-1.689-10.264s0.215-0.218,0.453-0.46
			c0.245-0.159,2.883-1.079,1.387-2.486c-1.494-1.407-1.908,1.847-1.812,2.019c-0.115,0.122-0.447,0.449-0.447,0.449
			s-3.638-1.767-5.959,0.479c-2.32,2.246-7.949,3.725-7.949,3.725s3.865-3.601,3.956-4.482c0.09-0.882,4.971-10.119-4.599-11.703
			c-3.237-4.93-5.018-3.513-7.519,1.596C0.719,8.635,4.463,18.858,6.201,23.148c-0.105-0.152-0.167-0.241-0.167-0.241
			C5.898,22.91,5.81,22.923,5.81,22.923s-0.521-1.097-1.28-0.783c-0.013,0.005-0.021,0.012-0.034,0.018
			c-0.168-0.43-1.706-2.288-1.702-2.787c0.073-0.029,0.14-0.098,0.172-0.196c0.048-0.149-0.002-0.299-0.112-0.335
			s-0.237,0.058-0.286,0.206c-0.041,0.129-0.008,0.253,0.072,0.311c-0.007,0.547,1.543,2.44,1.718,2.881
			c-0.005,0.004-0.012,0.008-0.017,0.013c-0.373-0.339-2.7-1.514-3.343-1.707c-0.008-0.109-0.13-0.199-0.281-0.199
			c-0.156,0-0.284,0.095-0.284,0.209c0,0.116,0.128,0.209,0.285,0.209c0.088,0,0.165-0.031,0.217-0.079
			c0.604,0.176,2.917,1.339,3.286,1.672c-0.426,0.448-0.303,1.278,0.571,1.562c-0.34,1.464,1.542,2.432,2.222,3.503
			c0.535,0.845,2.239,3.49,3.269,4.035c0.077,0.041,0.291-0.066,0.456,0.046c0.207,0.143,0.3,0.588,0.438,0.484
			c0.138-0.104-0.077-0.353-0.127-0.634c-0.038-0.211,0.024-0.381,0.027-0.449c0.021-0.424-0.21-0.896-0.536-1.377
			c0.044,0.027-0.687-1.052-1.572-2.348c0.063,0.015,0.125,0.021,0.186,0.016c0.913-0.073,11.292,8.776,15.895,1.466
			c0.516-0.787,1.562-0.722,1.818-0.535c0.256,0.188,2.875,4.288,4.414,1.664C32.819,27.163,27.648,27.731,27.39,27.593z
			 M16.819,20.409c0.297,0,0.538,0.241,0.538,0.539c0,0.297-0.01,0.646-0.307,0.646c-0.298,0-0.769-0.351-0.769-0.646
			C16.282,20.65,16.521,20.409,16.819,20.409z M15.867,18.698c0.297,0,0.538,0.241,0.538,0.538s-0.01,0.646-0.308,0.646
			c-0.297,0-0.769-0.351-0.769-0.646C15.328,18.938,15.569,18.698,15.867,18.698z M4.016,11.608C3.468,6.562,3.987,2.023,6.66,2.062
			C9.332,2.1,8.892,4.158,9.427,5.527c0.535,1.37-2.25,14.472-2.25,14.472S4.562,16.655,4.016,11.608z M7.786,19.695
			c0.212-2.462,3.506-13.924,2.473-14.958c-1.033-1.034,1.65-1.034,1.844,0.304C12.295,6.378,7.573,22.158,7.786,19.695z
			 M8.728,19.955c-0.192-0.169,1.18-4.227,2.311-7.996c1.012-3.371,2.204-6.344,2.407-6.265c0.431,0.167,1.728,0.198,1.879,4.271
			C15.477,14.041,9.093,20.276,8.728,19.955z M19.298,30.275c-2.514,0.04-10.16-3.283-9.803-3.812
			c0.357-0.527,14.262-0.082,14.627,1.176S21.811,30.235,19.298,30.275z M17.745,22.681c-0.059-0.292,0.131-0.575,0.422-0.634
			c0.293-0.058,0.576,0.131,0.634,0.423c0.058,0.291,0.116,0.638-0.175,0.695C18.333,23.224,17.803,22.972,17.745,22.681z
			 M19.081,23.993c-0.053-0.292,0.142-0.572,0.435-0.625s0.571,0.142,0.625,0.434s0.104,0.64-0.188,0.691
			C19.661,24.546,19.135,24.285,19.081,23.993z M20.788,24.511c0.252-0.155,0.584-0.077,0.74,0.176s0.332,0.557,0.079,0.713
			s-0.838,0.105-0.993-0.147C20.456,24.999,20.536,24.667,20.788,24.511z M22.439,25.476c0.187-0.232,0.524-0.271,0.757-0.085
			s0.5,0.411,0.314,0.645c-0.186,0.232-0.753,0.383-0.985,0.197C22.292,26.046,22.255,25.708,22.439,25.476z M25.178,26.584
			c-0.173,0.241-0.731,0.421-0.974,0.248c-0.244-0.173-0.299-0.509-0.125-0.751c0.172-0.241,0.508-0.297,0.75-0.124
			S25.35,26.342,25.178,26.584z M25.217,25.046c-2.271,0.852-8.716-5.635-7.783-6.892s5.229-3.081,7.054-1.094
			c1.824,1.985,3.243,1.175,3.445,3.282C28.136,22.451,27.487,24.194,25.217,25.046z"/>
	</g>
</g>
</svg>